<svg xmlns="http://www.w3.org/2000/svg" xmlns:xlink="http://www.w3.org/1999/xlink" width="500" zoomAndPan="magnify" viewBox="0 0 375 374.999991" height="500" preserveAspectRatio="xMidYMid meet" version="1.0"><defs><g/><clipPath id="b98e7e5e0a"><path d="M 37.5 78.734375 L 336.75 78.734375 L 336.75 270.734375 L 37.5 270.734375 Z M 37.5 78.734375 " clip-rule="nonzero"/></clipPath><clipPath id="5953f5bf71"><path d="M 165 182 L 209 182 L 209 198.855469 L 165 198.855469 Z M 165 182 " clip-rule="nonzero"/></clipPath><clipPath id="70331f6271"><path d="M 234 177 L 261.957031 177 L 261.957031 191 L 234 191 Z M 234 177 " clip-rule="nonzero"/></clipPath><clipPath id="cc3b4716b7"><path d="M 220 150.855469 L 248 150.855469 L 248 178 L 220 178 Z M 220 150.855469 " clip-rule="nonzero"/></clipPath><clipPath id="b98408cc58"><path d="M 126 150.855469 L 154 150.855469 L 154 178 L 126 178 Z M 126 150.855469 " clip-rule="nonzero"/></clipPath></defs><rect x="-37.5" width="450" fill="#ffffff" y="-37.499999" height="449.999989" fill-opacity="1"/><rect x="-37.5" width="450" fill="#f6f3f0" y="-37.499999" height="449.999989" fill-opacity="1"/><path fill="#f2deba" d="M 54.753906 242.539062 L 319.496094 242.539062 L 319.496094 104.558594 C 319.496094 92.390625 310.5625 82.515625 299.5625 82.515625 L 74.6875 82.515625 C 63.6875 82.515625 54.753906 92.390625 54.753906 104.558594 Z M 54.753906 242.539062 " fill-opacity="1" fill-rule="evenodd"/><path fill="#f2deba" d="M 332.835938 256.972656 L 332.835938 246.566406 C 332.835938 244.34375 330.050781 242.539062 326.621094 242.539062 L 47.628906 242.539062 C 44.199219 242.539062 41.414062 244.34375 41.414062 246.566406 L 41.414062 256.972656 C 41.414062 262.480469 49.90625 266.957031 60.371094 266.957031 L 313.878906 266.957031 C 324.34375 266.957031 332.835938 262.480469 332.835938 256.972656 Z M 332.835938 256.972656 " fill-opacity="1" fill-rule="evenodd"/><path fill="#0e5e6f" d="M 163.179688 242.539062 L 211.070312 242.539062 L 211.070312 254.746094 L 163.179688 254.746094 Z M 163.179688 242.539062 " fill-opacity="1" fill-rule="evenodd"/><path fill="#45b7c4" d="M 306.789062 103.726562 C 306.789062 103.09375 306.726562 102.46875 306.601562 101.847656 C 306.476562 101.226562 306.296875 100.625 306.054688 100.042969 C 305.8125 99.457031 305.515625 98.902344 305.160156 98.378906 C 304.808594 97.851562 304.410156 97.367188 303.964844 96.917969 C 303.515625 96.472656 303.027344 96.074219 302.503906 95.722656 C 301.976562 95.371094 301.421875 95.074219 300.835938 94.832031 C 300.25 94.589844 299.648438 94.40625 299.027344 94.28125 C 298.40625 94.160156 297.78125 94.097656 297.148438 94.097656 L 77.101562 94.097656 C 76.46875 94.097656 75.84375 94.160156 75.222656 94.28125 C 74.601562 94.40625 74 94.589844 73.414062 94.832031 C 72.828125 95.074219 72.273438 95.371094 71.746094 95.722656 C 71.222656 96.074219 70.734375 96.472656 70.285156 96.917969 C 69.839844 97.367188 69.441406 97.851562 69.089844 98.378906 C 68.734375 98.902344 68.4375 99.457031 68.195312 100.042969 C 67.953125 100.625 67.773438 101.226562 67.648438 101.847656 C 67.523438 102.46875 67.460938 103.09375 67.460938 103.726562 L 67.460938 217.664062 C 67.460938 218.296875 67.523438 218.921875 67.648438 219.542969 C 67.769531 220.160156 67.953125 220.761719 68.195312 221.347656 C 68.4375 221.929688 68.734375 222.484375 69.089844 223.011719 C 69.441406 223.539062 69.839844 224.023438 70.285156 224.46875 C 70.734375 224.917969 71.222656 225.316406 71.746094 225.667969 C 72.273438 226.019531 72.828125 226.316406 73.414062 226.558594 C 74 226.800781 74.601562 226.980469 75.222656 227.105469 C 75.84375 227.230469 76.46875 227.292969 77.101562 227.292969 L 297.148438 227.292969 C 297.78125 227.292969 298.40625 227.230469 299.027344 227.105469 C 299.648438 226.980469 300.25 226.800781 300.835938 226.558594 C 301.421875 226.316406 301.976562 226.019531 302.503906 225.667969 C 303.027344 225.316406 303.515625 224.917969 303.964844 224.46875 C 304.410156 224.023438 304.808594 223.539062 305.160156 223.011719 C 305.511719 222.484375 305.8125 221.929688 306.054688 221.347656 C 306.296875 220.761719 306.476562 220.160156 306.601562 219.542969 C 306.726562 218.921875 306.789062 218.296875 306.789062 217.664062 Z M 306.789062 103.726562 " fill-opacity="1" fill-rule="evenodd"/><g clip-path="url(#b98e7e5e0a)"><path fill="#000000" d="M 50.96875 238.757812 L 47.628906 238.757812 C 44.527344 238.757812 41.808594 239.851562 40.105469 241.359375 C 38.472656 242.804688 37.628906 244.644531 37.628906 246.566406 L 37.628906 256.972656 C 37.628906 260.269531 39.421875 263.460938 42.863281 265.933594 C 46.820312 268.777344 53.171875 270.734375 60.371094 270.734375 L 313.878906 270.734375 C 321.078125 270.734375 327.429688 268.777344 331.386719 265.933594 C 334.828125 263.460938 336.621094 260.269531 336.621094 256.972656 L 336.621094 246.566406 C 336.621094 244.644531 335.777344 242.804688 334.148438 241.359375 C 332.441406 239.851562 329.726562 238.757812 326.621094 238.757812 L 323.28125 238.757812 L 323.28125 104.558594 C 323.28125 90.203125 312.542969 78.734375 299.5625 78.734375 L 74.6875 78.734375 C 61.707031 78.734375 50.96875 90.203125 50.96875 104.558594 Z M 214.855469 246.320312 L 214.855469 254.746094 C 214.855469 255.25 214.757812 255.730469 214.566406 256.195312 C 214.375 256.65625 214.101562 257.066406 213.746094 257.417969 C 213.390625 257.773438 212.980469 258.046875 212.519531 258.238281 C 212.054688 258.429688 211.570312 258.527344 211.070312 258.527344 L 163.179688 258.527344 C 162.679688 258.527344 162.195312 258.429688 161.730469 258.238281 C 161.269531 258.046875 160.859375 257.773438 160.503906 257.417969 C 160.148438 257.066406 159.875 256.65625 159.683594 256.195312 C 159.492188 255.730469 159.394531 255.25 159.394531 254.746094 L 159.394531 246.320312 L 47.628906 246.320312 C 46.742188 246.320312 45.585938 246.828125 45.199219 247.011719 L 45.199219 256.972656 C 45.199219 258.085938 46.117188 258.960938 47.28125 259.796875 C 50.226562 261.914062 55.011719 263.175781 60.371094 263.175781 L 313.878906 263.175781 C 319.238281 263.175781 324.023438 261.914062 326.96875 259.796875 C 328.132812 258.960938 329.054688 258.085938 329.054688 256.972656 L 329.054688 247.011719 C 328.664062 246.828125 327.507812 246.320312 326.621094 246.320312 Z M 207.285156 246.320312 L 207.285156 250.96875 L 166.964844 250.96875 L 166.964844 246.320312 Z M 315.710938 238.757812 L 58.539062 238.757812 L 58.539062 104.558594 C 58.539062 94.578125 65.664062 86.292969 74.6875 86.292969 L 299.5625 86.292969 C 308.585938 86.292969 315.710938 94.578125 315.710938 104.558594 Z M 187.386719 238.097656 C 187.589844 238.15625 187.800781 238.195312 188.011719 238.207031 C 188.226562 238.222656 188.4375 238.210938 188.648438 238.175781 C 188.859375 238.136719 189.0625 238.078125 189.257812 237.992188 C 189.453125 237.910156 189.640625 237.804688 189.8125 237.675781 C 189.980469 237.550781 190.136719 237.40625 190.273438 237.242188 C 190.414062 237.078125 190.527344 236.902344 190.625 236.710938 C 190.722656 236.519531 190.792969 236.320312 190.84375 236.113281 C 190.894531 235.90625 190.917969 235.695312 190.917969 235.484375 C 190.910156 234.953125 190.820312 234.4375 190.640625 233.941406 C 190.023438 232.6875 189.023438 232.375 188.074219 232.410156 C 187.90625 232.417969 186.28125 232.285156 185.472656 234.515625 C 185.347656 234.855469 185.296875 235.207031 185.3125 235.570312 C 185.328125 235.929688 185.414062 236.273438 185.566406 236.601562 C 185.722656 236.929688 185.933594 237.21875 186.199219 237.460938 C 186.46875 237.707031 186.773438 237.890625 187.113281 238.011719 C 187.203125 238.046875 187.292969 238.074219 187.386719 238.097656 Z M 310.574219 103.726562 C 310.574219 102.84375 310.484375 101.972656 310.3125 101.109375 C 310.140625 100.246094 309.886719 99.410156 309.550781 98.59375 C 309.210938 97.78125 308.796875 97.007812 308.308594 96.277344 C 307.820312 95.546875 307.261719 94.867188 306.640625 94.246094 C 306.015625 93.625 305.335938 93.066406 304.605469 92.578125 C 303.871094 92.089844 303.097656 91.675781 302.285156 91.339844 C 301.46875 91.003906 300.628906 90.75 299.765625 90.578125 C 298.902344 90.402344 298.027344 90.316406 297.148438 90.316406 L 77.101562 90.316406 C 76.222656 90.316406 75.347656 90.40625 74.484375 90.578125 C 73.621094 90.75 72.78125 91.003906 71.964844 91.339844 C 71.152344 91.675781 70.378906 92.089844 69.644531 92.578125 C 68.914062 93.066406 68.234375 93.625 67.609375 94.246094 C 66.988281 94.867188 66.429688 95.546875 65.941406 96.277344 C 65.453125 97.007812 65.039062 97.78125 64.699219 98.59375 C 64.363281 99.410156 64.109375 100.246094 63.9375 101.109375 C 63.765625 101.972656 63.675781 102.84375 63.675781 103.726562 L 63.675781 217.664062 C 63.675781 218.542969 63.765625 219.414062 63.9375 220.277344 C 64.109375 221.140625 64.363281 221.980469 64.699219 222.792969 C 65.039062 223.605469 65.453125 224.378906 65.941406 225.109375 C 66.429688 225.84375 66.988281 226.519531 67.609375 227.140625 C 68.234375 227.765625 68.914062 228.320312 69.644531 228.808594 C 70.378906 229.296875 71.152344 229.710938 71.964844 230.050781 C 72.78125 230.386719 73.621094 230.640625 74.484375 230.8125 C 75.347656 230.984375 76.222656 231.070312 77.101562 231.070312 L 297.148438 231.070312 C 298.027344 231.070312 298.902344 230.984375 299.765625 230.8125 C 300.628906 230.640625 301.46875 230.386719 302.285156 230.050781 C 303.097656 229.710938 303.871094 229.296875 304.605469 228.808594 C 305.335938 228.320312 306.015625 227.765625 306.640625 227.140625 C 307.261719 226.519531 307.820312 225.84375 308.308594 225.109375 C 308.796875 224.378906 309.210938 223.605469 309.550781 222.792969 C 309.886719 221.980469 310.140625 221.140625 310.3125 220.277344 C 310.484375 219.414062 310.574219 218.542969 310.574219 217.664062 Z M 303.003906 103.726562 L 303.003906 217.664062 C 303.003906 218.046875 302.964844 218.429688 302.890625 218.804688 C 302.816406 219.179688 302.703125 219.546875 302.558594 219.902344 C 302.410156 220.257812 302.230469 220.59375 302.015625 220.914062 C 301.800781 221.230469 301.558594 221.527344 301.289062 221.796875 C 301.015625 222.070312 300.71875 222.3125 300.398438 222.527344 C 300.082031 222.738281 299.742188 222.917969 299.386719 223.066406 C 299.03125 223.214844 298.667969 223.324219 298.289062 223.398438 C 297.914062 223.472656 297.53125 223.511719 297.148438 223.511719 L 77.101562 223.511719 C 76.71875 223.511719 76.335938 223.472656 75.960938 223.398438 C 75.582031 223.324219 75.21875 223.214844 74.863281 223.066406 C 74.507812 222.917969 74.167969 222.738281 73.851562 222.527344 C 73.53125 222.3125 73.234375 222.070312 72.960938 221.796875 C 72.691406 221.527344 72.449219 221.230469 72.234375 220.914062 C 72.019531 220.59375 71.839844 220.257812 71.691406 219.902344 C 71.546875 219.546875 71.433594 219.179688 71.359375 218.804688 C 71.285156 218.429688 71.246094 218.046875 71.246094 217.664062 L 71.246094 103.726562 C 71.246094 103.339844 71.285156 102.960938 71.359375 102.585938 C 71.433594 102.207031 71.546875 101.84375 71.691406 101.488281 C 71.839844 101.132812 72.019531 100.796875 72.234375 100.476562 C 72.449219 100.15625 72.691406 99.863281 72.960938 99.589844 C 73.234375 99.320312 73.53125 99.078125 73.851562 98.863281 C 74.167969 98.648438 74.507812 98.46875 74.863281 98.324219 C 75.21875 98.175781 75.582031 98.066406 75.960938 97.988281 C 76.335938 97.914062 76.71875 97.875 77.101562 97.875 L 297.148438 97.875 C 297.53125 97.875 297.914062 97.914062 298.289062 97.988281 C 298.667969 98.066406 299.03125 98.175781 299.386719 98.324219 C 299.742188 98.46875 300.082031 98.648438 300.398438 98.863281 C 300.71875 99.078125 301.015625 99.320312 301.289062 99.589844 C 301.558594 99.863281 301.800781 100.15625 302.015625 100.476562 C 302.230469 100.796875 302.410156 101.132812 302.558594 101.488281 C 302.703125 101.84375 302.816406 102.207031 302.890625 102.585938 C 302.964844 102.960938 303.003906 103.339844 303.003906 103.726562 Z M 303.003906 103.726562 " fill-opacity="1" fill-rule="evenodd"/></g><g clip-path="url(#5953f5bf71)"><path fill="#0d0e0b" d="M 186.960938 198.886719 C 169.722656 198.886719 165.941406 184.304688 165.90625 184.15625 C 165.707031 183.355469 166.195312 182.542969 166.996094 182.34375 C 167.792969 182.148438 168.605469 182.636719 168.800781 183.441406 C 168.929688 183.945312 172.109375 195.890625 186.960938 195.890625 C 201.808594 195.890625 204.992188 183.945312 205.117188 183.4375 C 205.320312 182.636719 206.128906 182.148438 206.925781 182.347656 C 207.722656 182.550781 208.210938 183.355469 208.015625 184.15625 C 207.976562 184.304688 204.195312 198.886719 186.960938 198.886719 " fill-opacity="1" fill-rule="nonzero"/></g><path fill="#ff8981" d="M 125.679688 191.054688 C 125.664062 191.054688 125.648438 191.054688 125.632812 191.054688 C 118.210938 191.039062 112.21875 187.945312 112.242188 184.140625 C 112.269531 180.34375 118.28125 177.277344 125.679688 177.277344 C 125.695312 177.277344 125.710938 177.277344 125.726562 177.277344 C 133.140625 177.292969 139.136719 180.386719 139.113281 184.191406 C 139.089844 187.988281 133.078125 191.054688 125.679688 191.054688 " fill-opacity="1" fill-rule="nonzero"/><g clip-path="url(#70331f6271)"><path fill="#ff8981" d="M 248.246094 190.914062 C 248.226562 190.914062 248.210938 190.914062 248.195312 190.914062 C 240.773438 190.902344 234.78125 187.808594 234.804688 184.003906 C 234.828125 180.210938 240.839844 177.140625 248.238281 177.140625 C 248.253906 177.140625 248.269531 177.140625 248.285156 177.140625 C 255.703125 177.15625 261.703125 180.246094 261.671875 184.050781 C 261.652344 187.847656 255.640625 190.914062 248.246094 190.914062 " fill-opacity="1" fill-rule="nonzero"/></g><g clip-path="url(#cc3b4716b7)"><path fill="#0d0e0b" d="M 233.820312 177.816406 C 226.417969 177.816406 220.398438 171.773438 220.398438 164.339844 C 220.398438 156.914062 226.417969 150.867188 233.820312 150.867188 C 241.222656 150.867188 247.242188 156.914062 247.242188 164.339844 C 247.242188 171.773438 241.222656 177.816406 233.820312 177.816406 " fill-opacity="1" fill-rule="nonzero"/></g><path fill="#1a1819" d="M 233.820312 175.792969 C 227.53125 175.792969 222.414062 170.65625 222.414062 164.339844 C 222.414062 158.027344 227.53125 152.890625 233.820312 152.890625 C 240.109375 152.890625 245.226562 158.027344 245.226562 164.339844 C 245.226562 170.65625 240.109375 175.792969 233.820312 175.792969 " fill-opacity="1" fill-rule="nonzero"/><path fill="#0c0c09" d="M 234.296875 155.066406 C 229.195312 155.066406 225.0625 159.21875 225.0625 164.339844 C 225.0625 165.003906 225.132812 165.648438 225.261719 166.265625 C 225.460938 162.945312 227.960938 160.636719 230.574219 160.132812 C 234.703125 159.335938 239.222656 163.128906 238.492188 167.621094 C 237.882812 171.347656 235.042969 173.09375 232.378906 173.414062 C 233 173.542969 233.640625 173.617188 234.296875 173.617188 C 239.398438 173.617188 243.535156 169.460938 243.535156 164.339844 C 243.535156 159.21875 239.398438 155.066406 234.296875 155.066406 " fill-opacity="1" fill-rule="nonzero"/><path fill="#f0eeee" d="M 242.742188 159.976562 C 242.742188 162.863281 240.414062 165.199219 237.542969 165.199219 C 234.671875 165.199219 232.339844 162.863281 232.339844 159.976562 C 232.339844 157.09375 234.671875 154.757812 237.542969 154.757812 C 240.414062 154.757812 242.742188 157.09375 242.742188 159.976562 " fill-opacity="1" fill-rule="nonzero"/><g clip-path="url(#b98408cc58)"><path fill="#0d0e0b" d="M 140.097656 177.816406 C 132.695312 177.816406 126.675781 171.773438 126.675781 164.339844 C 126.675781 156.914062 132.695312 150.867188 140.097656 150.867188 C 147.496094 150.867188 153.519531 156.914062 153.519531 164.339844 C 153.519531 171.773438 147.496094 177.816406 140.097656 177.816406 " fill-opacity="1" fill-rule="nonzero"/></g><path fill="#1a1819" d="M 140.097656 175.792969 C 133.808594 175.792969 128.695312 170.65625 128.695312 164.339844 C 128.695312 158.027344 133.808594 152.890625 140.097656 152.890625 C 146.386719 152.890625 151.503906 158.027344 151.503906 164.339844 C 151.503906 170.65625 146.386719 175.792969 140.097656 175.792969 " fill-opacity="1" fill-rule="nonzero"/><path fill="#0c0c09" d="M 140.574219 155.066406 C 135.472656 155.066406 131.335938 159.21875 131.335938 164.339844 C 131.335938 165.003906 131.40625 165.648438 131.542969 166.265625 C 131.742188 162.945312 134.238281 160.636719 136.855469 160.132812 C 140.980469 159.335938 145.5 163.128906 144.769531 167.621094 C 144.160156 171.347656 141.320312 173.09375 138.660156 173.414062 C 139.273438 173.542969 139.917969 173.617188 140.574219 173.617188 C 145.679688 173.617188 149.816406 169.460938 149.816406 164.339844 C 149.816406 159.21875 145.679688 155.066406 140.574219 155.066406 " fill-opacity="1" fill-rule="nonzero"/><path fill="#f0eeee" d="M 149.019531 159.976562 C 149.019531 162.863281 146.691406 165.199219 143.820312 165.199219 C 140.949219 165.199219 138.617188 162.863281 138.617188 159.976562 C 138.617188 157.09375 140.949219 154.757812 143.820312 154.757812 C 146.691406 154.757812 149.019531 157.09375 149.019531 159.976562 " fill-opacity="1" fill-rule="nonzero"/><path fill="#f0eeee" d="M 136.910156 169.417969 C 136.910156 170.796875 135.796875 171.914062 134.417969 171.914062 C 133.042969 171.914062 131.929688 170.796875 131.929688 169.417969 C 131.929688 168.035156 133.042969 166.914062 134.417969 166.914062 C 135.796875 166.914062 136.910156 168.035156 136.910156 169.417969 " fill-opacity="1" fill-rule="nonzero"/><path fill="#f0eeee" d="M 231.179688 169.417969 C 231.179688 170.796875 230.0625 171.914062 228.6875 171.914062 C 227.3125 171.914062 226.195312 170.796875 226.195312 169.417969 C 226.195312 168.035156 227.3125 166.914062 228.6875 166.914062 C 230.0625 166.914062 231.179688 168.035156 231.179688 169.417969 " fill-opacity="1" fill-rule="nonzero"/><g fill="#000000" fill-opacity="1"><g transform="translate(50.877303, 303.661269)"><g><path d="M 3.03125 0 C 2.832031 0 2.660156 -0.0703125 2.515625 -0.21875 C 2.367188 -0.363281 2.296875 -0.550781 2.296875 -0.78125 L 2.296875 -20.921875 C 2.296875 -21.148438 2.367188 -21.335938 2.515625 -21.484375 C 2.660156 -21.628906 2.832031 -21.703125 3.03125 -21.703125 L 6.390625 -21.703125 C 6.617188 -21.703125 6.800781 -21.628906 6.9375 -21.484375 C 7.082031 -21.335938 7.15625 -21.148438 7.15625 -20.921875 L 7.15625 -13.859375 L 13.515625 -21.109375 C 13.597656 -21.234375 13.738281 -21.363281 13.9375 -21.5 C 14.132812 -21.632812 14.394531 -21.703125 14.71875 -21.703125 L 18.5 -21.703125 C 18.664062 -21.703125 18.816406 -21.632812 18.953125 -21.5 C 19.085938 -21.363281 19.15625 -21.210938 19.15625 -21.046875 C 19.15625 -20.898438 19.113281 -20.773438 19.03125 -20.671875 L 11.0625 -11.3125 L 19.625 -1.015625 C 19.707031 -0.941406 19.75 -0.820312 19.75 -0.65625 C 19.75 -0.488281 19.679688 -0.335938 19.546875 -0.203125 C 19.410156 -0.0664062 19.257812 0 19.09375 0 L 15.1875 0 C 14.8125 0 14.53125 -0.0820312 14.34375 -0.25 C 14.164062 -0.414062 14.046875 -0.53125 13.984375 -0.59375 L 7.15625 -8.53125 L 7.15625 -0.78125 C 7.15625 -0.550781 7.082031 -0.363281 6.9375 -0.21875 C 6.800781 -0.0703125 6.617188 0 6.390625 0 Z M 3.03125 0 "/></g></g></g><g fill="#000000" fill-opacity="1"><g transform="translate(77.131721, 303.661269)"><g><path d="M 1.015625 0 C 0.835938 0 0.6875 -0.0664062 0.5625 -0.203125 C 0.4375 -0.335938 0.375 -0.488281 0.375 -0.65625 C 0.375 -0.757812 0.382812 -0.851562 0.40625 -0.9375 L 7.78125 -20.859375 C 7.84375 -21.085938 7.96875 -21.285156 8.15625 -21.453125 C 8.34375 -21.617188 8.597656 -21.703125 8.921875 -21.703125 L 12.890625 -21.703125 C 13.222656 -21.703125 13.484375 -21.617188 13.671875 -21.453125 C 13.859375 -21.285156 13.992188 -21.085938 14.078125 -20.859375 L 21.421875 -0.9375 C 21.460938 -0.851562 21.484375 -0.757812 21.484375 -0.65625 C 21.484375 -0.488281 21.414062 -0.335938 21.28125 -0.203125 C 21.144531 -0.0664062 20.984375 0 20.796875 0 L 17.546875 0 C 17.253906 0 17.035156 -0.0703125 16.890625 -0.21875 C 16.742188 -0.363281 16.648438 -0.5 16.609375 -0.625 L 15.28125 -4.09375 L 6.546875 -4.09375 L 5.234375 -0.625 C 5.171875 -0.5 5.070312 -0.363281 4.9375 -0.21875 C 4.8125 -0.0703125 4.59375 0 4.28125 0 Z M 7.71875 -8.09375 L 14.109375 -8.09375 L 10.90625 -16.984375 Z M 7.71875 -8.09375 "/></g></g></g><g fill="#000000" fill-opacity="1"><g transform="translate(105.152925, 303.661269)"><g><path d="M 3.03125 0 C 2.832031 0 2.660156 -0.0703125 2.515625 -0.21875 C 2.367188 -0.363281 2.296875 -0.550781 2.296875 -0.78125 L 2.296875 -20.921875 C 2.296875 -21.148438 2.367188 -21.335938 2.515625 -21.484375 C 2.660156 -21.628906 2.832031 -21.703125 3.03125 -21.703125 L 11.28125 -21.703125 C 13.863281 -21.703125 15.898438 -21.109375 17.390625 -19.921875 C 18.878906 -18.734375 19.625 -17.019531 19.625 -14.78125 C 19.625 -13.28125 19.257812 -12.019531 18.53125 -11 C 17.8125 -9.988281 16.84375 -9.234375 15.625 -8.734375 L 20.03125 -0.984375 C 20.09375 -0.867188 20.125 -0.757812 20.125 -0.65625 C 20.125 -0.488281 20.054688 -0.335938 19.921875 -0.203125 C 19.785156 -0.0664062 19.632812 0 19.46875 0 L 16 0 C 15.625 0 15.34375 -0.0976562 15.15625 -0.296875 C 14.96875 -0.492188 14.832031 -0.675781 14.75 -0.84375 L 10.96875 -7.9375 L 7.21875 -7.9375 L 7.21875 -0.78125 C 7.21875 -0.550781 7.144531 -0.363281 7 -0.21875 C 6.851562 -0.0703125 6.671875 0 6.453125 0 Z M 7.21875 -11.875 L 11.21875 -11.875 C 12.332031 -11.875 13.160156 -12.128906 13.703125 -12.640625 C 14.253906 -13.160156 14.53125 -13.882812 14.53125 -14.8125 C 14.53125 -15.75 14.257812 -16.484375 13.71875 -17.015625 C 13.1875 -17.554688 12.351562 -17.828125 11.21875 -17.828125 L 7.21875 -17.828125 Z M 7.21875 -11.875 "/></g></g></g><g fill="#000000" fill-opacity="1"><g transform="translate(132.492212, 303.661269)"><g><path d="M 3.03125 0 C 2.832031 0 2.660156 -0.0703125 2.515625 -0.21875 C 2.367188 -0.363281 2.296875 -0.550781 2.296875 -0.78125 L 2.296875 -20.921875 C 2.296875 -21.148438 2.367188 -21.335938 2.515625 -21.484375 C 2.660156 -21.628906 2.832031 -21.703125 3.03125 -21.703125 L 6.609375 -21.703125 C 6.804688 -21.703125 6.976562 -21.628906 7.125 -21.484375 C 7.269531 -21.335938 7.34375 -21.148438 7.34375 -20.921875 L 7.34375 -0.78125 C 7.34375 -0.550781 7.269531 -0.363281 7.125 -0.21875 C 6.976562 -0.0703125 6.804688 0 6.609375 0 Z M 3.03125 0 "/></g></g></g><g fill="#000000" fill-opacity="1"><g transform="translate(148.331932, 303.661269)"><g><path d="M 3.03125 0 C 2.832031 0 2.660156 -0.0703125 2.515625 -0.21875 C 2.367188 -0.363281 2.296875 -0.550781 2.296875 -0.78125 L 2.296875 -20.921875 C 2.296875 -21.148438 2.367188 -21.335938 2.515625 -21.484375 C 2.660156 -21.628906 2.832031 -21.703125 3.03125 -21.703125 L 5.890625 -21.703125 C 6.203125 -21.703125 6.425781 -21.628906 6.5625 -21.484375 C 6.707031 -21.335938 6.800781 -21.222656 6.84375 -21.140625 L 15.09375 -8.25 L 15.09375 -20.921875 C 15.09375 -21.148438 15.164062 -21.335938 15.3125 -21.484375 C 15.457031 -21.628906 15.644531 -21.703125 15.875 -21.703125 L 19.03125 -21.703125 C 19.257812 -21.703125 19.445312 -21.628906 19.59375 -21.484375 C 19.738281 -21.335938 19.8125 -21.148438 19.8125 -20.921875 L 19.8125 -0.78125 C 19.8125 -0.570312 19.738281 -0.390625 19.59375 -0.234375 C 19.445312 -0.078125 19.257812 0 19.03125 0 L 16.1875 0 C 15.875 0 15.644531 -0.078125 15.5 -0.234375 C 15.351562 -0.390625 15.257812 -0.5 15.21875 -0.5625 L 7 -13.046875 L 7 -0.78125 C 7 -0.550781 6.925781 -0.363281 6.78125 -0.21875 C 6.644531 -0.0703125 6.460938 0 6.234375 0 Z M 3.03125 0 "/></g></g></g><g fill="#000000" fill-opacity="1"><g transform="translate(176.632094, 303.661269)"><g><path d="M 1.015625 0 C 0.835938 0 0.6875 -0.0664062 0.5625 -0.203125 C 0.4375 -0.335938 0.375 -0.488281 0.375 -0.65625 C 0.375 -0.757812 0.382812 -0.851562 0.40625 -0.9375 L 7.78125 -20.859375 C 7.84375 -21.085938 7.96875 -21.285156 8.15625 -21.453125 C 8.34375 -21.617188 8.597656 -21.703125 8.921875 -21.703125 L 12.890625 -21.703125 C 13.222656 -21.703125 13.484375 -21.617188 13.671875 -21.453125 C 13.859375 -21.285156 13.992188 -21.085938 14.078125 -20.859375 L 21.421875 -0.9375 C 21.460938 -0.851562 21.484375 -0.757812 21.484375 -0.65625 C 21.484375 -0.488281 21.414062 -0.335938 21.28125 -0.203125 C 21.144531 -0.0664062 20.984375 0 20.796875 0 L 17.546875 0 C 17.253906 0 17.035156 -0.0703125 16.890625 -0.21875 C 16.742188 -0.363281 16.648438 -0.5 16.609375 -0.625 L 15.28125 -4.09375 L 6.546875 -4.09375 L 5.234375 -0.625 C 5.171875 -0.5 5.070312 -0.363281 4.9375 -0.21875 C 4.8125 -0.0703125 4.59375 0 4.28125 0 Z M 7.71875 -8.09375 L 14.109375 -8.09375 L 10.90625 -16.984375 Z M 7.71875 -8.09375 "/></g></g></g><g fill="#000000" fill-opacity="1"><g transform="translate(204.653294, 303.661269)"><g/></g></g><g fill="#000000" fill-opacity="1"><g transform="translate(217.703357, 303.661269)"><g><path d="M 3.03125 0 C 2.832031 0 2.660156 -0.0703125 2.515625 -0.21875 C 2.367188 -0.363281 2.296875 -0.550781 2.296875 -0.78125 L 2.296875 -20.921875 C 2.296875 -21.148438 2.367188 -21.335938 2.515625 -21.484375 C 2.660156 -21.628906 2.832031 -21.703125 3.03125 -21.703125 L 6.546875 -21.703125 C 6.742188 -21.703125 6.914062 -21.628906 7.0625 -21.484375 C 7.207031 -21.335938 7.28125 -21.148438 7.28125 -20.921875 L 7.28125 -4.1875 L 16.890625 -4.1875 C 17.117188 -4.1875 17.304688 -4.113281 17.453125 -3.96875 C 17.597656 -3.820312 17.671875 -3.632812 17.671875 -3.40625 L 17.671875 -0.78125 C 17.671875 -0.550781 17.597656 -0.363281 17.453125 -0.21875 C 17.304688 -0.0703125 17.117188 0 16.890625 0 Z M 3.03125 0 "/></g></g></g><g fill="#000000" fill-opacity="1"><g transform="translate(242.129007, 303.661269)"><g><path d="M 11.15625 0.3125 C 9.34375 0.3125 7.753906 0.0078125 6.390625 -0.59375 C 5.023438 -1.207031 3.96875 -2.148438 3.21875 -3.421875 C 2.476562 -4.691406 2.109375 -6.3125 2.109375 -8.28125 L 2.109375 -20.921875 C 2.109375 -21.148438 2.179688 -21.335938 2.328125 -21.484375 C 2.472656 -21.628906 2.648438 -21.703125 2.859375 -21.703125 L 6.265625 -21.703125 C 6.492188 -21.703125 6.675781 -21.628906 6.8125 -21.484375 C 6.957031 -21.335938 7.03125 -21.148438 7.03125 -20.921875 L 7.03125 -8.3125 C 7.03125 -6.800781 7.390625 -5.671875 8.109375 -4.921875 C 8.835938 -4.179688 9.851562 -3.8125 11.15625 -3.8125 C 12.4375 -3.8125 13.4375 -4.179688 14.15625 -4.921875 C 14.882812 -5.671875 15.25 -6.800781 15.25 -8.3125 L 15.25 -20.921875 C 15.25 -21.148438 15.328125 -21.335938 15.484375 -21.484375 C 15.640625 -21.628906 15.820312 -21.703125 16.03125 -21.703125 L 19.4375 -21.703125 C 19.644531 -21.703125 19.820312 -21.628906 19.96875 -21.484375 C 20.113281 -21.335938 20.1875 -21.148438 20.1875 -20.921875 L 20.1875 -8.28125 C 20.1875 -6.3125 19.816406 -4.691406 19.078125 -3.421875 C 18.347656 -2.148438 17.304688 -1.207031 15.953125 -0.59375 C 14.597656 0.0078125 13 0.3125 11.15625 0.3125 Z M 11.15625 0.3125 "/></g></g></g><g fill="#000000" fill-opacity="1"><g transform="translate(270.615158, 303.661269)"><g><path d="M 3.0625 0 C 2.84375 0 2.660156 -0.0703125 2.515625 -0.21875 C 2.367188 -0.363281 2.296875 -0.550781 2.296875 -0.78125 L 2.296875 -20.921875 C 2.296875 -21.148438 2.367188 -21.335938 2.515625 -21.484375 C 2.660156 -21.628906 2.84375 -21.703125 3.0625 -21.703125 L 5.984375 -21.703125 C 6.296875 -21.703125 6.523438 -21.617188 6.671875 -21.453125 C 6.828125 -21.285156 6.925781 -21.160156 6.96875 -21.078125 L 12.703125 -10.609375 L 18.4375 -21.078125 C 18.476562 -21.160156 18.578125 -21.285156 18.734375 -21.453125 C 18.890625 -21.617188 19.125 -21.703125 19.4375 -21.703125 L 22.3125 -21.703125 C 22.539062 -21.703125 22.726562 -21.628906 22.875 -21.484375 C 23.019531 -21.335938 23.09375 -21.148438 23.09375 -20.921875 L 23.09375 -0.78125 C 23.09375 -0.550781 23.019531 -0.363281 22.875 -0.21875 C 22.726562 -0.0703125 22.539062 0 22.3125 0 L 19.15625 0 C 18.945312 0 18.769531 -0.0703125 18.625 -0.21875 C 18.476562 -0.363281 18.40625 -0.550781 18.40625 -0.78125 L 18.40625 -13.265625 L 14.484375 -5.921875 C 14.398438 -5.734375 14.273438 -5.566406 14.109375 -5.421875 C 13.941406 -5.273438 13.710938 -5.203125 13.421875 -5.203125 L 11.96875 -5.203125 C 11.695312 -5.203125 11.476562 -5.273438 11.3125 -5.421875 C 11.144531 -5.566406 11.007812 -5.734375 10.90625 -5.921875 L 7 -13.265625 L 7 -0.78125 C 7 -0.550781 6.925781 -0.363281 6.78125 -0.21875 C 6.644531 -0.0703125 6.460938 0 6.234375 0 Z M 3.0625 0 "/></g></g></g><g fill="#000000" fill-opacity="1"><g transform="translate(302.200917, 303.661269)"><g><path d="M 8.71875 0 C 8.488281 0 8.300781 -0.0703125 8.15625 -0.21875 C 8.007812 -0.363281 7.9375 -0.550781 7.9375 -0.78125 L 7.9375 -7.59375 L 0.6875 -20.703125 C 0.664062 -20.765625 0.644531 -20.820312 0.625 -20.875 C 0.601562 -20.925781 0.59375 -20.984375 0.59375 -21.046875 C 0.59375 -21.210938 0.65625 -21.363281 0.78125 -21.5 C 0.914062 -21.632812 1.066406 -21.703125 1.234375 -21.703125 L 4.5625 -21.703125 C 4.820312 -21.703125 5.035156 -21.628906 5.203125 -21.484375 C 5.367188 -21.335938 5.484375 -21.203125 5.546875 -21.078125 L 10.421875 -12.5625 L 15.28125 -21.078125 C 15.34375 -21.203125 15.457031 -21.335938 15.625 -21.484375 C 15.789062 -21.628906 16.019531 -21.703125 16.3125 -21.703125 L 19.59375 -21.703125 C 19.78125 -21.703125 19.9375 -21.632812 20.0625 -21.5 C 20.1875 -21.363281 20.25 -21.210938 20.25 -21.046875 C 20.25 -20.984375 20.242188 -20.925781 20.234375 -20.875 C 20.222656 -20.820312 20.195312 -20.765625 20.15625 -20.703125 L 12.890625 -7.59375 L 12.890625 -0.78125 C 12.890625 -0.550781 12.816406 -0.363281 12.671875 -0.21875 C 12.535156 -0.0703125 12.351562 0 12.125 0 Z M 8.71875 0 "/></g></g></g></svg>